<?xml version="1.0" encoding="utf-8"?>
<!-- Generator: Adobe Illustrator 28.3.0, SVG Export Plug-In . SVG Version: 6.00 Build 0)  -->
<svg version="1.1" xmlns="http://www.w3.org/2000/svg" xmlns:xlink="http://www.w3.org/1999/xlink" x="0px" y="0px"
	 viewBox="0 0 864 864" style="enable-background:new 0 0 864 864;" xml:space="preserve">
<style type="text/css">
	.st0{display:none;}
	.st1{display:inline;fill:#FFDF00;}
	.st2{fill:none;}
</style>
<g id="Layer_1">
	<g class="st0">
		<path class="st1" d="M264.29,397.09c0.43-0.14,2.18-0.94,5.26-2.38c3.07-1.44,6.04-2.71,8.89-3.82c2.86-1.1,4.91-1.66,6.16-1.66
			c0.67,0,1.18,0.16,1.51,0.47c0.34,0.31,0.53,0.62,0.58,0.94c0.05,0.31,0.07,0.78,0.07,1.4v2.16c0.19,0.48,0.58,0.72,1.15,0.72
			c0.29,0,0.76-0.3,1.4-0.9c0.65-0.6,1.37-1.25,2.16-1.94c0.79-0.7,1.96-1.34,3.49-1.94s3.22-0.9,5.04-0.9
			c3.41,0,6.46,0.8,9.15,2.41c2.69,1.61,4.82,3.74,6.41,6.41c1.58,2.66,2.78,5.57,3.6,8.71c0.82,3.14,1.22,6.4,1.22,9.76
			c0,7.25-1.82,13.27-5.47,18.07s-8.62,7.2-14.91,7.2c-4.85,0-8.83-2.47-11.95-7.42c-0.53-0.86-0.94-1.1-1.22-0.72
			c-0.05,0.1-0.07,0.24-0.07,0.43v22.32c0,1.97-0.29,3.44-0.86,4.43c-0.58,0.98-1.61,1.48-3.1,1.48l-12.98-0.29
			c-0.7-0.02-1.27-0.62-1.17-1.31c0.24-1.61-0.97-3.81-0.97-6.89v-49.25c0-2.98-1.03-4.82-3.1-5.54c-0.72-0.24-1.08-0.58-1.08-1.01
			C263.5,397.69,263.76,397.38,264.29,397.09z M286.76,421.43c0,7.58,2.11,11.38,6.34,11.38c1.87,0,3.41-0.52,4.61-1.55
			s2.05-2.58,2.56-4.64c0.5-2.06,0.82-3.92,0.94-5.58c0.12-1.66,0.18-3.83,0.18-6.52c0-11.81-3.14-17.71-9.43-17.71
			c-1.06,0-1.96,0.36-2.7,1.08c-0.74,0.72-1.27,1.68-1.58,2.88s-0.54,2.33-0.68,3.38s-0.22,2.14-0.22,3.24V421.43z"/>
		<path class="st1" d="M326.28,419.42c1.54-3.02,3.64-5.56,6.3-7.6c2.66-2.04,5.53-3.72,8.6-5.04c3.07-1.32,6.41-2.36,10.01-3.13
			c1.73-0.34,2.59-1.39,2.59-3.17c0-0.91-0.08-1.75-0.25-2.52s-0.46-1.54-0.86-2.3s-1.06-1.37-1.94-1.8
			c-0.89-0.43-1.96-0.65-3.2-0.65c-1.68,0.05-3.31,0.58-4.9,1.58s-2.98,2.24-4.18,3.71c-1.2,1.46-2.33,2.92-3.38,4.36
			c-1.06,1.44-2.08,2.66-3.06,3.67c-0.98,1.01-1.88,1.51-2.7,1.51c-0.58,0-1.09-0.23-1.55-0.68s-0.68-1-0.68-1.62v-3.96
			c0-0.19-0.01-0.66-0.04-1.4s-0.02-1.27,0-1.58s0.07-0.74,0.14-1.3c0.07-0.55,0.23-1.02,0.47-1.4c0.24-0.38,0.53-0.74,0.86-1.08
			c4.03-3.84,10.73-5.76,20.09-5.76c3.98,0,7.57,0.64,10.77,1.91c3.19,1.27,5.75,2.95,7.67,5.04c1.92,2.09,3.38,4.39,4.39,6.91
			c1.01,2.52,1.51,5.1,1.51,7.74v21.39c0,3.98,0.84,6.82,2.52,8.5h-17.64c-2.11,0-3.36-1.03-3.74-3.1
			c-0.29-1.68-0.91-2.52-1.87-2.52c-0.62,0-1.38,0.35-2.27,1.04c-0.89,0.7-1.79,1.46-2.7,2.3c-0.91,0.84-2.29,1.61-4.14,2.3
			c-1.85,0.7-3.95,1.04-6.3,1.04c-3.5,0-6.52-1.19-9.04-3.56c-2.52-2.38-3.78-5.29-3.78-8.75
			C323.98,425.8,324.74,422.44,326.28,419.42z M344.32,412.4c-2.09,2.71-3.13,6.16-3.13,10.33c0,6.62,2.28,9.94,6.84,9.94
			c1.87,0,3.31-0.76,4.32-2.27c1.01-1.51,1.51-3.49,1.51-5.94c0-1.54-0.01-3.49-0.04-5.87c-0.02-2.38-0.04-4.31-0.04-5.8
			c0-1.63-0.19-2.78-0.58-3.46c-0.38-0.67-1.06-1.01-2.02-1.01C348.7,408.33,346.41,409.68,344.32,412.4z"/>
		<path class="st1" d="M379.06,432.23v-33.41c0-3.98-0.84-6.82-2.52-8.5h17.64c1.49,0,2.52,0.5,3.1,1.51
			c0.58,1.01,0.86,2.5,0.86,4.46v1.22c0,1.15,0.17,1.73,0.5,1.73c0.43,0,0.92-0.35,1.48-1.04c0.55-0.7,1.18-1.54,1.87-2.52
			c0.7-0.98,1.54-1.96,2.52-2.92c0.98-0.96,2.32-1.79,4-2.48c1.68-0.7,3.58-1.04,5.69-1.04c2.16,0,4.2,0.4,6.12,1.19
			c1.92,0.79,2.88,1.84,2.88,3.13c0,0.29-1.3,3.02-3.89,8.21c-0.19,0.43-0.47,1-0.83,1.69c-0.36,0.7-0.64,1.24-0.83,1.62
			c-0.19,0.38-0.43,0.85-0.72,1.4c-0.29,0.55-0.53,0.98-0.72,1.3s-0.41,0.61-0.65,0.9c-0.24,0.29-0.46,0.5-0.65,0.65
			c-0.19,0.14-0.38,0.22-0.58,0.22c-0.67,0-1.27-0.32-1.8-0.97s-0.98-1.38-1.37-2.2c-0.38-0.82-1.1-1.55-2.16-2.2
			c-1.06-0.65-2.38-0.97-3.96-0.97c-4.61,0-6.91,3.14-6.91,9.43v19.59c0,3.98,0.84,6.82,2.52,8.5h-24.12
			C378.22,439.05,379.06,436.22,379.06,432.23z"/>
		<path class="st1" d="M423.19,376.43c0-0.34,0.26-0.65,0.79-0.94c0.34-0.14,1.57-0.71,3.71-1.69c2.14-0.98,4.13-1.9,5.98-2.74
			s3.84-1.62,5.98-2.34c2.14-0.72,3.68-1.08,4.64-1.08c0.67,0,1.18,0.16,1.51,0.47c0.34,0.31,0.53,0.62,0.58,0.94
			c0.05,0.31,0.07,0.78,0.07,1.4v31.75c1.97-3.94,4.82-7.08,8.57-9.43c3.74-2.35,7.97-3.53,12.67-3.53c1.92,0,3.74,0.29,5.47,0.86
			c1.73,0.58,2.59,1.37,2.59,2.38v12.1c0,2.26-0.82,3.38-2.45,3.38c-1.3,0-2.69-0.36-4.18-1.08c-1.49-0.72-3.28-1.44-5.36-2.16
			c-2.09-0.72-4.52-1.08-7.31-1.08c-3.36,0-5.89,0.7-7.6,2.09s-2.56,3.14-2.56,5.26c0,3.17,1.57,6.07,4.72,8.71
			s7.09,3.96,11.85,3.96c2.11,0,3.95-0.23,5.51-0.68s2.82-0.91,3.78-1.37s1.78-0.68,2.45-0.68c0.19,0,0.37,0.02,0.54,0.07
			c0.17,0.05,0.3,0.13,0.4,0.25c0.1,0.12,0.18,0.24,0.25,0.36c0.07,0.12,0.13,0.29,0.18,0.5c0.05,0.22,0.1,0.4,0.14,0.54
			c0.05,0.14,0.07,0.37,0.07,0.68v0.68v0.72v0.72v13.9c0,0.77-0.36,1.34-1.08,1.73c-0.72,0.38-1.42,0.6-2.09,0.65
			c-0.67,0.05-1.58,0.07-2.74,0.07c-4.94,0-9.61-1.66-14.01-4.97c-4.39-3.31-7.67-7.49-9.83-12.53v7.92c0,3.98,0.84,6.82,2.52,8.5
			h-24.12c1.68-1.68,2.52-4.51,2.52-8.5v-49.25v-0.36v-0.58c0-0.14-0.01-0.37-0.04-0.68s-0.06-0.56-0.11-0.76
			c-0.05-0.19-0.12-0.44-0.22-0.76c-0.1-0.31-0.23-0.58-0.4-0.79s-0.36-0.43-0.58-0.65c-0.22-0.22-0.47-0.41-0.76-0.58
			s-0.62-0.3-1.01-0.4C423.55,377.2,423.19,376.86,423.19,376.43z"/>
	</g>
	<g class="st0">
		<path class="st1" d="M268,432c10.75-5.23,13.49-7.17,16.27-7.17c0.67,0,1.18,0.16,1.51,0.47c0.34,0.31,0.53,0.62,0.58,0.94
			c0.05,0.31,0.07,0.78,0.07,1.4v28.8h0.5c0.53,0,1.08-0.35,1.66-1.04s1.25-1.54,2.02-2.52s1.66-1.96,2.66-2.92
			c1.01-0.96,2.41-1.79,4.21-2.48s3.83-1.04,6.08-1.04c8.21,0,12.31,5.64,12.31,16.92l0.07,13.75v12.31c0,3.98,0.84,6.82,2.52,8.5
			h-24.12c1.68-1.68,2.52-4.51,2.52-8.5v-23.4c0-4.27-1.37-6.41-4.1-6.41c-4.22,0-6.34,3.41-6.34,10.23v19.58
			c0,3.98,0.84,6.82,2.52,8.5h-24.12c1.68-1.68,2.52-4.51,2.52-8.5C267.35,489.41,267.47,432.29,268,432z"/>
		<path class="st1" d="M344.39,447.51c-1.68,1.68-2.52,4.51-2.52,8.5v23.4c0,4.27,1.37,6.41,4.1,6.41c4.22,0,6.34-3.41,6.34-10.23
			V456c0-3.98-0.84-6.82-2.52-8.5h24.12c-1.68,1.68-2.52,4.51-2.52,8.5v33.41c0,3.98,0.84,6.82,2.52,8.5h-17.64
			c-1.49,0-2.52-0.5-3.1-1.51c-0.58-1.01-0.86-2.5-0.86-4.46v-1.22c0-1.15-0.17-1.73-0.5-1.73c-0.53,0-1.08,0.35-1.66,1.04
			s-1.25,1.52-2.02,2.48s-1.66,1.93-2.66,2.92c-1.01,0.98-2.41,1.82-4.21,2.52c-1.8,0.7-3.83,1.04-6.08,1.04
			c-8.21,0-12.31-5.64-12.31-16.92l-0.07-13.75V456c0-3.98-0.84-6.82-2.52-8.5H344.39z"/>
		<path class="st1" d="M376.07,497.91c1.68-1.68,2.52-4.51,2.52-8.5V456c0-3.98-0.84-6.82-2.52-8.5h17.64c1.49,0,2.52,0.5,3.1,1.51
			c0.58,1.01,0.86,2.5,0.86,4.46v1.22c0,1.15,0.17,1.73,0.5,1.73c0.53,0,1.08-0.35,1.66-1.04s1.25-1.54,2.02-2.52
			s1.66-1.96,2.66-2.92c1.01-0.96,2.41-1.79,4.21-2.48c1.8-0.7,3.83-1.04,6.08-1.04c6.05,0,9.86,3.07,11.45,9.22
			c0.29,0.53,0.74,0.79,1.37,0.79c0.53,0,1.08-0.35,1.66-1.04c0.58-0.7,1.25-1.54,2.02-2.52c0.77-0.98,1.66-1.96,2.66-2.92
			s2.41-1.79,4.21-2.48c1.8-0.7,3.83-1.04,6.08-1.04c8.21,0,12.31,5.64,12.31,16.92l0.07,13.75v12.31c0,3.98,0.84,6.82,2.52,8.5
			h-24.12c1.68-1.68,2.52-4.51,2.52-8.5v-23.4c0-4.27-1.37-6.41-4.1-6.41c-3.94,0-6.05,2.98-6.34,8.93l0.07,8.57v12.31
			c0,3.98,0.84,6.82,2.52,8.5h-24.12c1.68-1.68,2.52-4.51,2.52-8.5v-23.4c0-4.27-1.37-6.41-4.1-6.41c-4.22,0-6.34,3.41-6.34,10.23
			v19.58c0,3.98,0.84,6.82,2.52,8.5H376.07z"/>
		<path class="st1" d="M463.62,476.6c1.54-3.02,3.64-5.56,6.3-7.6c2.66-2.04,5.53-3.72,8.6-5.04s6.41-2.36,10.01-3.13
			c1.73-0.34,2.59-1.39,2.59-3.17c0-0.91-0.08-1.75-0.25-2.52c-0.17-0.77-0.46-1.54-0.86-2.3c-0.41-0.77-1.06-1.37-1.94-1.8
			c-0.89-0.43-1.96-0.65-3.21-0.65c-1.68,0.05-3.31,0.58-4.9,1.58c-1.58,1.01-2.98,2.25-4.18,3.71s-2.33,2.92-3.38,4.36
			c-1.06,1.44-2.08,2.66-3.06,3.67c-0.98,1.01-1.88,1.51-2.7,1.51c-0.58,0-1.09-0.23-1.55-0.68s-0.68-1-0.68-1.62v-3.96
			c0-0.19-0.01-0.66-0.04-1.4s-0.02-1.27,0-1.58c0.02-0.31,0.07-0.74,0.14-1.3c0.07-0.55,0.23-1.02,0.47-1.4
			c0.24-0.38,0.53-0.74,0.86-1.08c4.03-3.84,10.73-5.76,20.09-5.76c3.98,0,7.57,0.64,10.76,1.91s5.75,2.95,7.67,5.04
			c1.92,2.09,3.38,4.39,4.39,6.91c1.01,2.52,1.51,5.1,1.51,7.74v21.39c0,3.98,0.84,6.82,2.52,8.5h-17.64c-2.11,0-3.36-1.03-3.75-3.1
			c-0.29-1.68-0.91-2.52-1.87-2.52c-0.62,0-1.38,0.35-2.27,1.04c-0.89,0.7-1.79,1.46-2.7,2.3c-0.91,0.84-2.29,1.61-4.14,2.3
			c-1.85,0.7-3.95,1.04-6.3,1.04c-3.5,0-6.52-1.19-9.04-3.56c-2.52-2.38-3.78-5.29-3.78-8.75
			C461.32,482.98,462.08,479.62,463.62,476.6z M481.66,469.58c-2.09,2.71-3.13,6.16-3.13,10.33c0,6.62,2.28,9.94,6.84,9.94
			c1.87,0,3.31-0.76,4.32-2.27c1.01-1.51,1.51-3.49,1.51-5.94c0-1.54-0.01-3.49-0.04-5.87c-0.02-2.38-0.04-4.31-0.04-5.8
			c0-1.63-0.19-2.78-0.58-3.46c-0.38-0.67-1.06-1.01-2.02-1.01C486.04,465.51,483.75,466.86,481.66,469.58z"/>
		<path class="st1" d="M513.88,497.91c1.68-1.68,2.52-4.51,2.52-8.5V456c0-3.98-0.84-6.82-2.52-8.5h17.64c1.49,0,2.52,0.5,3.1,1.51
			c0.58,1.01,0.86,2.5,0.86,4.46v1.22c0,1.15,0.17,1.73,0.5,1.73c0.53,0,1.08-0.35,1.66-1.04s1.25-1.54,2.02-2.52
			c0.77-0.98,1.66-1.96,2.66-2.92c1.01-0.96,2.41-1.79,4.21-2.48s3.83-1.04,6.08-1.04c8.21,0,12.31,5.64,12.31,16.92L565,477.1
			v12.31c0,3.98,0.84,6.82,2.52,8.5H543.4c1.68-1.68,2.52-4.51,2.52-8.5v-23.4c0-4.27-1.37-6.41-4.1-6.41
			c-4.22,0-6.34,3.41-6.34,10.23v19.58c0,3.98,0.84,6.82,2.52,8.5H513.88z"/>
		<path class="st1" d="M571.01,454.46c1.37-2.09,3.22-3.7,5.54-4.82s4.78-1.94,7.34-2.45s5.32-0.76,8.24-0.76
			c6.19,0,11.59,0.9,16.2,2.7s6.91,3.78,6.91,5.94c0,2.3-0.77,4.51-2.3,6.62c-1.54,2.11-3,3.17-4.39,3.17
			c-2.11,0-4.36-0.74-6.73-2.23s-4.45-3.11-6.23-4.86s-3.8-3.37-6.08-4.86s-4.43-2.23-6.44-2.23c-1.49,0-2.82,0.42-4,1.26
			c-1.18,0.84-1.76,2.08-1.76,3.71s0.94,2.89,2.81,3.78s4.56,1.64,8.06,2.27c2.98,0.53,5.56,1.06,7.74,1.58
			c2.18,0.53,4.57,1.32,7.16,2.38c2.59,1.06,4.69,2.24,6.3,3.56s2.96,3.04,4.07,5.15c1.1,2.11,1.66,4.51,1.66,7.2
			c0,3.17-0.73,5.94-2.2,8.32c-1.46,2.38-3.34,4.19-5.62,5.44c-2.28,1.25-4.58,2.17-6.91,2.77c-2.33,0.6-4.62,0.9-6.88,0.9
			c-5.38,0-10.75-0.65-16.13-1.94c-5.38-1.3-8.06-2.81-8.06-4.54c0-1.82,0.82-4.52,2.45-8.1c1.63-3.58,3.12-5.36,4.46-5.36
			c0.91,0,2.21,0.49,3.89,1.48c1.68,0.98,3.41,2.08,5.18,3.28c1.78,1.2,4.1,2.29,6.98,3.28s5.81,1.48,8.79,1.48
			c2.59,0,4.93-0.65,7.02-1.94c2.09-1.3,3.13-2.86,3.13-4.68c0-1.49-1.01-2.23-3.02-2.23c-0.67,0-2.39,0.16-5.15,0.47
			c-2.76,0.31-5.17,0.47-7.24,0.47c-2.45,0-4.87-0.19-7.27-0.58s-4.8-1.04-7.2-1.98c-2.4-0.94-4.5-2.09-6.3-3.46
			c-1.8-1.37-3.26-3.16-4.39-5.36s-1.69-4.66-1.69-7.34C568.96,459.03,569.64,456.54,571.01,454.46z"/>
	</g>
	<path d="M540.74,400.48c-0.86-1.08-2.3-1.7-3.99-1.71c-1.61,0-3.33,0.44-4.78,1.4c-3.14,1.98-4.29,5.2-2.58,7.36
		c0.17,0.22,0.33,0.35,0.53,0.53c1.9,1.64,5.35,1.58,8.24-0.21c1.5-0.91,2.59-2.18,3.03-3.52
		C541.84,402.94,541.6,401.56,540.74,400.48z"/>
	<path d="M525.55,395.46c0.17,0.22,0.39,0.48,0.6,0.65c1.08,0.93,2.59,1.47,4.36,1.48c2.03,0.03,4.27-0.6,6.18-1.78
		c4.08-2.55,5.5-6.7,3.29-9.44c-1.08-1.34-2.89-2.15-5.01-2.18c-2.09-0.07-4.27,0.6-6.18,1.78c-0.97,0.61-1.79,1.35-2.44,2.1
		c-0.65,0.75-1.16,1.55-1.48,2.45C524.24,392.41,524.47,394.12,525.55,395.46z"/>
	<path d="M505.39,386.86c2.4,1.37,5.45-0.2,6.95-3.6c0.68-1.62,0.91-3.35,0.67-4.94c-0.26-1.67-1.09-3-2.28-3.69
		c-1.2-0.69-2.55-0.68-3.88,0.04c-1.25,0.72-2.34,1.99-3.03,3.52c-1.34,3.12-0.89,6.54,1.01,8.18
		C504.99,386.59,505.15,386.72,505.39,386.86z"/>
	<path d="M524.72,373.24c-3.03-1.78-6.92,0.24-8.84,4.66c-0.88,2.07-1.22,4.33-0.84,6.38c0.28,1.76,1.03,3.17,2.11,4.09
		c0.21,0.18,0.5,0.36,0.74,0.5c1.49,0.87,3.22,0.84,4.92-0.1c1.64-0.86,2.98-2.53,3.92-4.55c0.88-2.07,1.22-4.33,0.84-6.38
		C527.22,375.74,526.21,374.11,524.72,373.24z"/>
	<path d="M525.42,409.6l-3.37-14c-0.53-2.22-2.8-4.17-5.08-4.37l-14.35-1.25c-0.44-0.04-0.79-0.07-1.17-0.06
		c-4.9,0.12-7.74,3.96-6.49,8.96c0.62,2.56,2.26,5.13,4.59,7.13c0.86,0.74,1.8,1.41,2.77,1.91c2.06,1.1,3.9,2.68,5.35,4.6
		c0.64,0.89,1.44,1.71,2.31,2.46c2.32,2,5.11,3.25,7.73,3.48c5.07,0.44,8.51-2.89,7.9-7.75
		C525.61,410.37,525.56,409.99,525.42,409.6z"/>
	<g>
		<g>
			<path d="M586.67,425.94c1.62-4.74,0.63-9.48-4.44-12.35c-2.33-1.32-5.24-2.53-8.4-1.07c0.94-1.88,0.55-4.31,0.07-5.92
				c-0.78-2.61-4.89-5.26-4.89-5.26c-6.5-4.6-14.48,3.88-17.17,11.97c-1.53,4.6-2.42,9.76-2.7,13.77
				c-0.48,3.41-0.12,7.02-2.27,11.42c0.99,3.18,13.91,1.53,19.1,0.25C572.71,437.08,583.29,433.79,586.67,425.94z"/>
		</g>
	</g>
</g>
<g id="Layer_2">
	<path d="M551.61,400.75c1.65-11.21-2.38-20.81-4.2-24.43c-8.15-16.24-23.82-16.29-30.51-16.32c-0.04,0-0.07,0-0.11,0
		c-6.24,0-12.28,1.76-17.5,5.09c-3.71,2.37-7.54,4.82-10.5,10.58c-3.81,7.41-4.84,17.46-2.68,26.2c2.34,9.49,8.15,16.65,15.27,18.86
		c0.87,3.8,2.08,7.4,3.6,10.7c2.49,5.4,6.06,10.32,7.23,10.56c0.05,0.01,0.1,0.01,0.15,0.01c0.27,0,0.57-0.13,0.77-0.38
		c0.84-1.01,0.17-2.25-0.32-3.16c-0.78-1.46-2.23-4.16-3.09-8.11c-0.38-1.76-0.63-3.58-0.75-5.42c5,2.71,10.28,3.79,15.37,3.15
		C533.86,426.89,548.98,418.62,551.61,400.75z M549.49,400.13c-2.4,16.25-16.47,23.81-25.34,24.92c-5.27,0.66-10.76-0.66-15.89-3.82
		c-0.14-0.09-0.29-0.13-0.43-0.13c-0.21,0-0.41,0.08-0.59,0.24c-0.3,0.28-0.49,0.76-0.49,1.28c0,2.93,0.31,5.83,0.91,8.62
		c0.04,0.19,0.09,0.38,0.13,0.56c-0.34-0.64-0.67-1.31-0.99-2.02c-1.53-3.31-2.72-6.94-3.54-10.79c-0.12-0.55-0.44-0.95-0.84-1.05
		c-6.64-1.78-12.1-8.31-14.26-17.05c-1.93-7.82-1.02-16.79,2.39-23.42c2.62-5.11,6.03-7.29,9.65-9.6
		c4.93-3.15,10.68-4.82,16.61-4.82c0.04,0,0.06,0,0.1,0c6.35,0.02,21.23,0.07,28.74,15.03C547.3,381.36,550.97,390.1,549.49,400.13z
		"/>
	<path d="M596.89,419.66c-0.33-6.32-2.91-10.23-5.4-14.03C587.98,400.31,577,392.9,577,392.9c-5-2.9-13-7.9-27-4.9
		c0.72,0.36,1.08,1.96,1.01,2.9C563,388,572,393,575.7,395.49c0,0,10.43,7.03,13.75,12.07c2.44,3.69,4.72,7.17,5.01,12.78
		c0.38,7.28-2.61,15.36-7.79,21.1c-5.8,6.42-13.77,9.38-20.82,7.73c-0.42-0.1-0.9,0.09-1.24,0.5c-2.44,2.89-5.12,5.42-7.99,7.51
		c-0.61,0.45-1.21,0.86-1.81,1.25c0.12-0.13,0.24-0.27,0.36-0.41c1.77-2.09,3.31-4.41,4.57-6.91c0.22-0.44,0.25-0.94,0.09-1.32
		c-0.1-0.22-0.26-0.39-0.45-0.49c-0.14-0.07-0.3-0.11-0.47-0.09c-6.21,0.25-11.98-1.24-16.69-4.32
		c-4.72-3.09-11.55-11.41-14.21-18.88c-0.75,0.53-1.11,1.08-2,1c2.76,8.31,9.58,17.01,14.73,20.37c4.54,2.97,10.01,4.56,15.9,4.64
		c-0.9,1.51-1.92,2.94-3.03,4.26c-2.52,2.96-5.05,4.57-6.41,5.44c-0.86,0.54-2.01,1.28-1.66,2.55c0.09,0.3,0.31,0.56,0.57,0.69
		c0.05,0.02,0.1,0.05,0.15,0.06c1.22,0.35,6.71-2.14,11.38-5.55c2.85-2.08,5.55-4.58,8-7.4c7.68,1.51,16.26-1.82,22.55-8.79
		C593.97,436.85,597.31,427.8,596.89,419.66z"/>
	<polygon class="st2" points="542.45,374.42 540.21,372.4 537.95,374.06 540.25,375.95 	"/>
</g>
</svg>
